<svg xmlns="http://www.w3.org/2000/svg" xmlns:xlink="http://www.w3.org/1999/xlink" width="1920" zoomAndPan="magnify" viewBox="0 0 1440 809.999993" height="1080" preserveAspectRatio="xMidYMid meet" version="1.0"><defs><clipPath id="1619c4633a"><path d="M 1 46 L 1440 46 L 1440 480.269531 L 1 480.269531 Z M 1 46 " clip-rule="nonzero"/></clipPath><clipPath id="b9407b8ddb"><path d="M 0 385.496094 L 1440 385.496094 L 1440 657 L 0 657 Z M 0 385.496094 " clip-rule="nonzero"/></clipPath></defs><g clip-path="url(#1619c4633a)"><path fill="#000000" d="M 2044.839844 537.214844 L 1.261719 538.019531 L 1.261719 126.125 C 1.261719 126.125 45.898438 140.4375 241.054688 187.128906 C 395.476562 224.066406 724.765625 242.769531 1084.765625 122.460938 C 1178.761719 91.050781 1711.390625 -32.71875 2046.277344 125.816406 Z M 2044.839844 537.214844 " fill-opacity="1" fill-rule="nonzero"/></g><g clip-path="url(#b9407b8ddb)"><path fill="#000000" d="M 1830.867188 206.980469 L -40.558594 206.246094 L -40.558594 583.5 C -40.558594 583.5 0.316406 570.386719 179.03125 527.625 C 320.445312 493.792969 621.996094 476.664062 951.667969 586.855469 C 1037.746094 615.621094 1525.507812 728.984375 1832.179688 583.78125 Z M 1830.867188 206.980469 " fill-opacity="1" fill-rule="nonzero"/></g></svg>